<?xml version="1.0" encoding="utf-8"?>
<!-- Generator: Adobe Illustrator 16.0.0, SVG Export Plug-In . SVG Version: 6.00 Build 0)  -->
<!DOCTYPE svg PUBLIC "-//W3C//DTD SVG 1.1//EN" "http://www.w3.org/Graphics/SVG/1.1/DTD/svg11.dtd">
<svg version="1.1"
	 id="svg2" xmlns:sodipodi="http://sodipodi.sourceforge.net/DTD/sodipodi-0.dtd" xmlns:svg="http://www.w3.org/2000/svg" xmlns:rdf="http://www.w3.org/1999/02/22-rdf-syntax-ns#" xmlns:inkscape="http://www.inkscape.org/namespaces/inkscape" xmlns:dc="http://purl.org/dc/elements/1.1/" xmlns:cc="http://creativecommons.org/ns#"
	 xmlns="http://www.w3.org/2000/svg" xmlns:xlink="http://www.w3.org/1999/xlink" x="0px" y="0px" width="512px" height="512px"
	 viewBox="0 0 512 512" enable-background="new 0 0 512 512" xml:space="preserve">
<g id="layer1" transform="translate(0,-540.3622)">
	<path id="path3766-1" fill="#CB0066" d="M458.734,632.223c0-5.091-2.118-10.151-5.719-13.75l-55-55
		c-3.598-3.591-8.635-5.688-13.719-5.688s-10.152,2.096-13.75,5.688L255.984,678.035L141.422,563.473
		c-3.667-3.664-8.848-5.764-14.031-5.688c-4.985,0.078-9.911,2.163-13.438,5.688l-55,55c-3.601,3.599-5.688,8.659-5.688,13.75
		c0,5.091,2.087,10.151,5.688,13.75l183.281,183.281c3.599,3.601,8.659,5.688,13.75,5.688s10.15-2.087,13.75-5.688l183.281-183.281
		C456.616,642.373,458.734,637.314,458.734,632.223z M458.734,832.223c0-5.091-2.118-10.151-5.719-13.75l-55-55
		c-3.598-3.591-8.635-5.688-13.719-5.688s-10.152,2.096-13.75,5.688L255.984,878.035L141.422,763.473
		c-3.667-3.664-8.848-5.764-14.031-5.688c-4.985,0.079-9.911,2.163-13.438,5.688l-55,55c-3.601,3.599-5.688,8.659-5.688,13.75
		s2.087,10.151,5.688,13.75l183.281,183.281c3.599,3.601,8.659,5.688,13.75,5.688s10.15-2.087,13.75-5.688l183.281-183.281
		C456.616,842.374,458.734,837.313,458.734,832.223z"/>
</g>
</svg>
