<?xml version="1.0" encoding="utf-8"?>
<!-- Generator: Adobe Illustrator 16.0.0, SVG Export Plug-In . SVG Version: 6.00 Build 0)  -->
<!DOCTYPE svg PUBLIC "-//W3C//DTD SVG 1.1//EN" "http://www.w3.org/Graphics/SVG/1.1/DTD/svg11.dtd">
<svg version="1.1" id="Layer_1" xmlns="http://www.w3.org/2000/svg" xmlns:xlink="http://www.w3.org/1999/xlink" x="0px" y="0px"
	 width="576px" height="288px" viewBox="0 0 576 288" enable-background="new 0 0 576 288" xml:space="preserve">
<g>
	<g id="Icon-Image" transform="translate(278.000000, 232.000000)">
		<path id="Fill-12" fill="#FFFFFF" d="M99.1-5.2H-78.65c-10.35,0-18.9-8.55-18.9-18.899V-151c0-10.35,8.55-18.9,18.9-18.9H99.1
			c10.351,0,18.9,8.55,18.9,18.9v126.9C118-13.75,109.45-5.2,99.1-5.2L99.1-5.2z M-79.1-157.75c-3.6,0-6.3,2.7-6.3,6.3v126.9
			c0,3.6,2.7,6.3,6.3,6.3H98.65c3.6,0,6.3-2.7,6.3-6.3v-126.9c0-3.6-2.7-6.3-6.3-6.3H-79.1L-79.1-157.75z"/>
		<path id="Fill-13" fill="#FFFFFF" d="M41.95-94.75C28-94.75,17.2-106,17.2-119.5s11.25-24.75,24.75-24.75S66.7-133,66.7-119.5
			S55.45-94.75,41.95-94.75L41.95-94.75z M41.95-133c-7.2,0-13.05,5.85-13.05,13.05c0,7.2,5.85,13.05,13.05,13.05
			S55-112.75,55-119.95C55-127.15,49.15-133,41.95-133L41.95-133z"/>
		<polyline id="Fill-14" fill="#FFFFFF" points="75.7,-7.45 -28.25,-105.1 -87.65,-50.2 -95.75,-58.75 -28.25,-121.3 83.8,-16 
			75.7,-7.45 		"/>
		<polyline id="Fill-15" fill="#FFFFFF" points="108.1,-39.85 73.45,-67.75 44.65,-43.9 37,-53.35 73.45,-83.05 115.3,-48.85 
			108.1,-39.85 		"/>
	</g>
</g>
</svg>
