<?xml version="1.0" encoding="utf-8"?>
<!-- Generator: Adobe Illustrator 16.0.0, SVG Export Plug-In . SVG Version: 6.00 Build 0)  -->
<!DOCTYPE svg PUBLIC "-//W3C//DTD SVG 1.1//EN" "http://www.w3.org/Graphics/SVG/1.1/DTD/svg11.dtd">
<svg version="1.1" id="Capa_1" xmlns="http://www.w3.org/2000/svg" xmlns:xlink="http://www.w3.org/1999/xlink" x="0px" y="0px"
	 width="576px" height="288px" viewBox="0 0 576 288" enable-background="new 0 0 576 288" xml:space="preserve">
<path fill="#CB0066" d="M400.582,0c-17.327,0-31.418,14.091-31.418,31.418c0,5.42,1.377,10.52,3.801,14.976l-51.468,51.468
	c-7.095-5.524-15.976-8.844-25.644-8.844c-9.667,0-18.546,3.32-25.646,8.839L230.049,57.7c1.843-3.116,2.969-6.698,2.969-10.572
	c0-11.552-9.394-20.946-20.945-20.946c-11.551,0-20.945,9.394-20.945,20.946c0,11.551,9.394,20.945,20.945,20.945
	c3.875,0,7.457-1.126,10.572-2.969l40.158,40.158c-5.519,7.101-8.839,15.981-8.839,25.648c0,9.666,3.32,18.547,8.839,25.643
	l-66.313,66.318c-5.582-5.062-12.96-8.18-21.071-8.18c-17.327,0-31.418,14.091-31.418,31.418c0,17.326,14.091,31.418,31.418,31.418
	s31.418-14.092,31.418-31.418c0-5.42-1.377-10.52-3.802-14.977l67.177-67.178c5.792,4.504,12.777,7.52,20.411,8.479v53.201
	c-14.834,2.504-26.182,15.405-26.182,30.947c0,17.327,14.091,31.418,31.418,31.418c17.328,0,31.418-14.091,31.418-31.418
	c0-15.537-11.348-28.439-26.182-30.947v-53.201c7.635-0.959,14.619-3.975,20.411-8.479l40.157,40.158
	c-1.85,3.121-2.975,6.703-2.975,10.578c0,11.551,9.395,20.945,20.945,20.945s20.945-9.396,20.945-20.945
	c0-11.553-9.395-20.945-20.945-20.945c-3.875,0-7.457,1.125-10.572,2.969l-40.157-40.158c5.52-7.101,8.84-15.98,8.84-25.646
	c0-9.667-3.32-18.547-8.84-25.643l50.608-50.609c5.577,5.063,12.955,8.179,21.066,8.179c17.327,0,31.418-14.091,31.418-31.418
	S417.909,0,400.582,0z M201.6,47.127c0-5.776,4.697-10.473,10.473-10.473c5.776,0,10.473,4.697,10.473,10.473
	c0,5.775-4.697,10.473-10.473,10.473C206.297,57.6,201.6,52.903,201.6,47.127z M175.418,267.055
	c-11.551,0-20.945-9.395-20.945-20.945s9.394-20.944,20.945-20.944c11.552,0,20.946,9.394,20.946,20.944
	S186.97,267.055,175.418,267.055z M316.8,256.582c0,11.551-9.394,20.945-20.944,20.945c-11.551,0-20.945-9.396-20.945-20.945
	c0-11.553,9.394-20.945,20.945-20.945C307.406,235.637,316.8,245.029,316.8,256.582z M295.854,162.327
	c-17.327,0-31.417-14.091-31.417-31.418s14.091-31.418,31.417-31.418c17.328,0,31.42,14.091,31.42,31.418
	S313.182,162.327,295.854,162.327z M390.109,214.691c0,5.774-4.697,10.473-10.473,10.473c-5.777,0-10.474-4.697-10.474-10.473
	c0-5.776,4.696-10.474,10.474-10.474C385.412,204.218,390.109,208.915,390.109,214.691z M400.582,52.364
	c-11.553,0-20.945-9.394-20.945-20.946c0-11.551,9.395-20.945,20.945-20.945s20.945,9.394,20.945,20.945
	C421.527,42.97,412.133,52.364,400.582,52.364z"/>
</svg>
